<svg xmlns="http://www.w3.org/2000/svg" xmlns:xlink="http://www.w3.org/1999/xlink" width="600" height="815.1"><g transform="translate(-380 420.1)" fill="#fff" stroke="#c09300"><path d="M683.5-2.3l293.9 272.8-21-495.4c-3-75-68.3-57.8-115.7-30.7-48 30.7-102.8 30.7-160.6 10.4-57.9 20.3-112.7 20.3-160.7-10.5-47.4-27-112.6-44.3-115.7 30.8l-20.9 495.4L683.5-2.3z" stroke-width="5.5" stroke-linejoin="round"/><path d="M393.5 246.5l-4.8 112.3-8 7.2 4.9-115.5a24 24 0 0 1 7.9-4zm9.6 8l-4 94-8 8.2 4.8-108.5c1.6 1.6 6.3 5.5 7.2 6.3zm8.7 7.2l-3.1 78.4-6.5 6.3 4-89.4c1.6 1.5 4.8 3.8 5.6 4.7zm9.5 4l-3.1 66.8-6.4 5.1 3.2-74.3c1.6.7 4.7 2.4 6.3 2.4zm8.8 0l-2.3 55.7-6.5 6.3 2.4-61.3c1.6 0 5.6 0 6.4-.7z" transform="translate(-1250.5 -1299.6) scale(4.29012)" id="a" fill="#c09300" stroke="none"/><use xlink:href="#a" transform="matrix(-1 0 0 1 1360.1 0)" width="100%" height="100%"/><path d="M693.6 52L735 239.9l-13.6 13.5-14.1-10.5-23.4-167.4 9.8 167.4-13.5 17.3-13.6-17.3 9.9-167.4L653 242.8l-14.2 10.5-13.5-13.5L666.5 52h27.1z" fill="#c09300" stroke-width="4.6"/><g id="b" fill="none" stroke-width="1.3" stroke-linejoin="round"><path d="M587.7-30.4L506 260.1l112.6 17.2 48-218.5-78.8-89.2z" fill="#fff" stroke-width="5.1"/><path d="M560.7 68.7l9.8 24 53.2-50.8" stroke-width="5.4"/><path d="M597.5 8.6L608.6 113l33.9-44.3M629 85.9l18.5 63.8m7.2-23.4L617.3 183m11.7 56.7l-12-56.6-10.5-57.6-25 33.9-11-39.1-35 36 17.8 65.4 24.6-40.5 13.5 41.2 25.3-39.3" stroke-width="5.4"/><path d="M529.9 253.3l22.7-32 14.8 49.2 20.3-34.4 13.6 41.2" stroke-width="5.4"/></g><use xlink:href="#b" transform="matrix(-1 0 0 1 1360.1 0)" width="100%" height="100%"/><g stroke-width="1.3" stroke-linecap="round" stroke-linejoin="round"><path d="M680 389.9c85.6 0 167.5-6.8 215.5-20.3 20.3-3.7 20.3-14.2 20.3-27.7 20.3-6.8 9.8-30.8 24-30.8-14.2 3.7-17.2-24-34.5-20.3 0-24-24-27-44.3-20.3-40.6 13.6-112.6 16.6-181 16.6-68.3-3-139.7-3-180.9-16.6-20.3-6.7-44.3-3.7-44.3 20.3-17.2-3.7-20.3 24-34.5 20.3 14.2 0 3.7 24 24 30.8 0 13.5 0 24 21 27.7 47.3 13.5 129.2 20.3 214.8 20.3z" stroke-width="10.2"/><path d="M563.8 260c27.6 3.7 58.4 6.8 82.4 3.7 13.6 0 23.4 23.4-3.7 27.1-24 3-61.5 0-81.8-3.7-17.3-3-54.8-9.8-78.8-16.6-24-10.5-6.8-30.8 6.8-27.7a452 452 0 0 0 75 17.2zm232.6 0c-27.7 3.7-58.5 6.8-81.9 3.7-14.1 0-24 23.4 3.1 27.1 24 3 61.6 0 81.9-3.7 17.2-3 54.7-9.8 78.8-16.6 24-10.5 6.7-30.8-6.8-27.7-21 6.8-48 13.5-75.1 17.2z" stroke-width="5.4"/><path d="M478.8 246.5c-21-3.7-30.8 20.3-24 33.9 3-6.8 17.2-6.8 20.3-13.6 3.7-10.4-3-10.4 3.7-20.3zm81.9 63c0-13.6 13.5-11.9 13.5-25.4 0-6.8-3.7-17.3-10.5-17.3-6.7 0-13.5 6.8-13.5 13.6-3 13.5 10.5 15.5 10.5 29zm97.4-39c20.3 0 18.3 27 8.4 40.6 0-9.8-17.2-13.5-17.2-20.3 0-10.4 15.5-10.4 8.8-20.3zm223.2-24c21-3.7 30.8 20.3 24 33.9-3-6.8-17.2-6.8-20.3-13.6-3.7-10.4 3-10.4-3.7-20.3zm-81.8 63c0-13.6-13.6-11.9-13.6-25.4 0-6.8 3.7-17.3 10.5-17.3 6.7 0 13.5 6.8 13.5 13.6 3.1 13.5-10.5 15.5-10.5 29zm-97.5-39c-20.3 0-18.3 27-8.4 40.6 0-9.8 17.2-13.5 17.2-20.3 0-10.4-15.5-10.4-8.8-20.3z" stroke-width="5.4"/><path d="M485.6 253.3c6.8 0 17.2 3 20.3 6.8l-20.3-6.8zm33.8 10.5c3.7 0 17.2 3 24 6.7l-24-6.8zm123.1 13.5c-6.8 0-20.3 0-24 3l24-3zm-37.5 0c-3.7-3.7-17.3-3.7-24 0h24zm269.6-24a35 35 0 0 0-20.3 6.8zm-33.9 10.5c-3.7 0-17.2 3-24 6.7l24-6.8zm-123.1 13.5c6.8 0 20.3 0 24 3l-24-3zm37.5 0c3.7-3.7 17.3-3.7 24 0h-24z" stroke-width="3.8"/><g fill="#c09300" stroke="none"><path d="M479.9 307.4c-2.3-.4-3.5-2.3-3-4.4.8-2.6 2.9-4.1 4.8-3.4 1.3.4 3.6 2.8 3.6 3.6 0 1-1.2 3.2-1.7 3.2-.3 0-.6.2-.8.5-.4.5-1.8.7-3 .5zm235.6 16.8c-.8-.3-2.2-2.2-2.2-3 0-1.7 2.5-4.5 4-4.5.8 0 2.8 1 3.6 1.9 1.4 1.4 1 3.8-.7 5.2-.8.6-3.4.9-4.7.4zm1.6 10.7c-1.8-.7-2.5-1.5-2.6-3.5-.2-2.1 0-2.4 2.2-3.6l1.6-.9 1.5.7c2 .9 3 1.9 3 3.3.1 1.5-1 3-2.7 3.7-1.5.7-1.6.7-3 .3z"/><path d="M498.8 288.1c-1.5 0-3.5 1.4-4.7 2-2.8.7-6 2.4-8.7.6-2.7-.8-6.2-.2-6.6 3 .7 2.9 4.6 4.5 7 2.6 1.8-2.3 6.6-3.6 7.1.3-2 3-1.7 6.9-3.4 10-.2 2-1 3.9-2.1 5.5-2 .2-4 0-5.8 1.2a9.1 9.1 0 0 0-7 3.8 20 20 0 0 0-3.8 8c.4 3.1 4 4 6.7 4.2l8.6 2.7c4.6 1 9 2.7 13.6 3.7 6.8 2 14 3 20.8 4.9l2.2.5c2.8.6 4.3-2.5 4.5-4.8 1.4-5 2.5-10 4-15 .9-2 2-6.6-1.8-5.5-2.2 1.3-4.1 3.3-6.9 3.4-3.7.3-1.6 4.1-.1 5.7.3 2.5-.5 5.5-2.2 7.5-2.2 1.4-5-.3-7.3-.8-2.5 0-7.4-1.2-5.1-4.6.8-2.5.9-5.2 1.9-7.6 1.2-2.7 1.4-5.5 2-8.3-1.6-3.4-4.2 1-6.3 1.4-1.5 1-7 1.5-4 4 2.4 2 .5 5.2 0 7.6 0 3.3-3.5 4-6.2 3.3-2.7-.1-6.5-2.1-4.2-5 .5-2.5 1.4-5 1.9-7.5l3-8.8c.4-2.7 1.4-5.2 2.6-7.5.1-3 2-5.5 2-8.5-.2-1.4-.8-2-1.7-2zm-15.4 31.1c.3 0 .6 0 1 .2 1 .4 1 1.3 0 2.3-.6.4-1.1.8-1.3.8-2-.2-2.6-.5-2.7-1.2 0-.7.2-.9 1.5-1.5a6 6 0 0 1 1.5-.6zm-4.5 21.6c-2-2-1.8-3.5 1.4-5.8 1.3-1 2.2-1 3.7.5 2.4 2.1 2.5 3.5.4 5.4-1 .9-1.5 1-2.7 1-1.3.1-1.6 0-2.8-1.1zm13.1 4a3.7 3.7 0 0 1-2.7-4.7c.6-2 1-2 3.7-2.1 3 0 3.6.5 3.6 3.2 0 1.5 0 1.8-.8 2.5-.9.9-2.6 1.3-3.8 1zm382.3.3c-1-.8-1.2-1.2-1.2-2.2 0-1.8 1-3 3.2-4 3-1.4 4.1-1.2 5.3.7 1.4 2.6 1.3 3.6-.4 5.4-1 1-1.2 1-3.4 1s-2.4 0-3.5-1zm-365 4.9c-1.5-.4-2.3-1.6-2.3-3.5 0-1.4 0-1.6 1-2.4.7-.5 1.8-1 2.6-1 1.1-.2 1.5-.1 2.5.5 2.3 1.7 2.8 3.3 1.5 5-1.5 1.6-2.9 2-5.2 1.4zm94.1 4.2c-.3-.4-1-.7-1.2-1.2.2-2.4.3-4.8 1-7.1.5-2.2.1-4.6.9-6.8.8-4 .8-8 1.7-12 0-2 .2-4 .8-6 .7-3.1 0-6.4 1-9.4 0-1.2 1.2-4.2 2.4-2.4 1.7 2.5 3.9 4.5 6 6.5 2 1 .2 2.7-1 3.2-1.8.7-2.3 2.7-2.1 4.4-.3 1.8-1 3.4-1 5.3-.5 2.6-.4 5.3-.7 8-.8 2.6-.5 5.4-.8 8.1 0 1.7-.7 3.3-.6 5-.2 1.7-.3 3.8-1.8 5-1.4.7-3.4.6-4.6-.6zm127.5-42c-2.1 1.5-4 3.4-5.8 5.2-2.6 2 2 3 2.7 4.7.6 2.5.6 5.2.8 7.8.7 2.3 1 4.8 1 7.3-.3 2.7-3.8 2.1-5.3 3.7-2.1.8-3 3-4.6 4.4-1 2-1.3 4.6-1.5 7 .2 1.9-1.2 4 0 5.7l.6.8c.4.6 1.5.1 2.1.3 2.2-.1 4.4.2 6.5-.7 5.2-.9 10.4-1 15.6-1.2 3.3.1 6.4-1 9.6-1 2.5.6 3.6-2.1 3.6-4-1.4-2.9-.2-6.2-1.4-9-1-3-.6-6.2-1-9.2 0-2.3-3-3.2-4.6-1.5-1.4 1.5-3.8 1.8-5 3.7-1.2 2.5 2.7 2.5 3.4 4.5.8 2 .5 4.2.7 6.3.5 2.6-2.3 2.7-4 3-2.3.8-5.6 1.4-6.9-1.4-.8-2-.7-4.2-1-6.4 0-3.8-.9-7.6-1.1-11.4-.2-4.7-1-9.4-1.4-14 0-2-.3-5.2-3-4.6zm-2.7 35.4h1.3l.1 1.7.2 1.6-1.8.5-1.7.4a11 11 0 0 1-.8-.5c-1-.7-.7-1.6.5-3 .7-.7 1-.8 2.2-.7zm-128.6-39.9c-1.6.6-3.7 3-5.3 3-3.8.3-3.3 4-.6 5.2.4 1.1 0 2.5.1 3.8.6 3.4-1.6 6-1.2 9.5-.1 3.7-1.3 7.4-1.4 11.1-1 3.9-1.1 7.9-1.8 11.8-.4 3.6-3 2.3-5.2 1.4l-.1-4.6c.9-3.5-2-4.5-4.7-5-3 .3-4.4-2.2-3.8-4.8 1.3-1.5 4.5-1 6.5-1.3 4.2.8 4-4.8 1.8-6.7-1.5-2.8-5.1-4-6.1-6.7.4-3.7-2.1-7.5-5.1-9.3-4.7-.3-8.2 3.7-10 7.7l-5.7 1.8c-3 .8-7.4 6-3.2 8 2.3.7 9.4 2.3 6.3 5.6-1.8 3-5.2 3-8.2 2.3-3.1 0-6.6-1.6-6.4-5.1-.7-3.3-.6-6.7-2-9.7-.7-3.6-4.8-2.7-5 .5-3.2 2.3-2.7 6-.6 8.8 1.4 3 0 6.7-1.3 9.6-.8 3.8-5 3.9-8 5.1-1.4.6-6.9-.3-4.9 2.8 3.3 1.2 7.1 2.2 10.5 1.4 3.5-.5 6.6-2.9 8.3-6 2.4-2.3 6.4-1 9.5-1.1 3.3 0 6.7 2.3 10 .8.9-2.5 5.2-6.5 6.5-2.3-.2 3.7 3 5.7 6.4 5.2 3.8-.2 2.4 2.6 2.3 4.8.3 4 2.9 6.1 6.2 7.8a8 8 0 0 0 3.5 0c3.2-1 6.6-2.4 7.6-6 1.3-3 1.4-6.2 2.3-9.3.8-4.8 1.7-9.7 1.9-14.6 1.2-4.4.8-9.1 1.7-13.7.6-3.3 1-6.7 1.4-10-.4-1.8-1.2-2.1-2.2-1.8zm-29 17.9c.6 0 1 .8 1 2.3 0 1.5.9 2.8 1.9 3 .8.2.7 1-.2 1.6-.5.4-1.3.6-3 .6-2.4 0-4-.7-5.3-2l-.8-.8 1.2-.8a27.6 27.6 0 0 0 2.4-2.2c1.3-1.2 2-1.8 2.7-1.7zm283.2-33.8c-2.4.1-4.9.5-7.1 1-4.5-.2-6.7 4.5-2.4 6.8 2.6 6.5 6.6-1.4 10.7-.8 6.2 1.2 6.7 7.8 7.7 12.8.3 5 1.7 9.8 3.2 14.5 4.1 4.6-3.1 7.5-6.2 3.9-2.6-2.9-8.2-6.4-11.4-2.4-3.9 1.6-4 6.8-7.2 8.3-5.2 1.6-5.9-4.8-8.6-7.5-2.5-3.6-7.3-3.9-11.3-5.1-1.8-3.7-.9-10-4.7-12.6-3.2 1.3-9 7.3-4.1 10 4.8 4.2-2.1 6-4.3 8.9-3.2 3.5-3.7 8.3-4.2 12.7-5.4 3-6.4-3.4-7-7.3-.5-4.8-4.5-3.4-7.3-1.7-4.1 1.7-6.1 5.6-9 8.6-.3 2.8.2 5.8.1 8.7 1 3.5 5.2 1.9 7.8 1.6 4.2-1.7 6 2.7 2.6 5.3-2.3 2.9-9.6 1.4-8.9 6 2.3.3 4.8.2 7.1 0 4.7-1.3 9.7-4.6 10.2-9.8.6-4.5 7.2-3.7 10.7-4.7 4.5-1.3 9.9-1.6 10.9 4 3 3.2 9.6 6.8 13 2.5 3.4-2.1 5-5.8 4.8-9.7-.7-3.4 5.5-3.5 7-1.6 2.2 3.7 9.2 2.6 12.6.5 3.6-2.6 4.4-7.3 9.5-7.3 7.7-2.3 15.6-3.6 23-6.5 6.1-1.3-.8-5.1-2.3-7.3-4.6-2.3-8.7 7-13.8 2.4-4-3.1-3.8-9-5.3-13.4-1-5.9-.7-12.6-5-17.2-2.8-3-6.7-3.8-10.8-3.6zm-29.2 40.6c.5 0 1.1.3 2.1.8 1.9 1 3.2 2.8 3.2 4.2 0 .9-.2 1-1.6 1.6-.8.4-1.8.8-2.1.8-.8 0-2.7-1.6-2.7-2.2l-.5-2c-.5-1.4-.5-1.3.2-2.3.5-.5.8-.9 1.4-.9zm28 1.5c1.6-.1 2.5.4 3.2 1.6.8 1.4.3 2.5-1.7 3.3l-1.9.7c-.1 0-.9-.4-1.6-1-1.2-.7-1.3-1-1.4-2 0-1.3 1.5-2.5 3.4-2.6zm-38.3.4c.4 0 .8.2 1.4.7.8.6 1 1.1 1.2 2.5.2 1 .1 2.2 0 2.7-.2 1-.2 1-2.4 1-2.7 0-3-.4-3-2.9.1-1.6.1-2 1-3 .7-.6 1.3-1 1.8-1zm-23.6 6.1c.8.3 1.6.9 1.8 2 .3 1.3 0 2-1 2.5s-3.2.6-3.8.2c-.2 0-.6-.4-.8-.8-.3-.5-.2-.7.1-1 .3-.2.6-.5.6-.7l.6-1.2c.7-.8 1.6-1.2 2.5-1zm39.6 5.1c.8 0 1.5.3 2 .7.7.7.7 1.7-.2 2.4-.6.5-3.8.4-4.8 0-.5-.2-.7-.4-.7-1 0-.5.1-.9 1.2-1.4.9-.4 1.8-.7 2.5-.7zm-73.6 20.7c-.4-.3-1-.5-.4-1 .7-1.2 2.2-1.7 3.5-2.2 2.4-1 4.4-2.7 5.9-4.8.2-1.4 1.8-2.2 1.8-3.7 0-2 .1-4-.4-6-.5-1.9-1.9-3.3-3.5-4.3-1.1-.8-2.9-1-3.3-2.6-.2-1.5 1-2.6 1.6-3.9 1-1.8 1.7-3.7 2.7-5.5 1.2-1.2 2.9 0 3.4 1.2.9 1.2 1.6 2.4 2 3.8 1.3 1.4 2.4 3.1 2.9 5 .6 1.3 1.6 2.6 1.6 4.1 0 1.8 1 3.4 1 5.2 0 2.4 0 5-.9 7.2-.6 1.3-1.8 2-2.6 3.1a14.9 14.9 0 0 1-4.6 3.2c-1.3.4-2 1.8-3.5 1.5-2.3 0-4.5.3-6.7 0l-.5-.3zm-29.4 2c-1-1.1-1.3-1.6-1.3-2.6s.2-1.5 1.2-2.5c1.9-2 2.8-2 6-.3 3.2 1.5 4.2 1.7 4.5.6.3-1.1 2-2.1 3.7-2.1 1.1 0 1.7.2 2.6.9 1 .8 1.1 1 1.1 2.9 0 2 0 2-1.2 3.1-1.2 1-1.4 1.2-2.9 1-1.8-.2-3-1-3.3-2.5-.2-1-.6-1.3-.8-.6-.1.2-.6.5-1 .6-1 .2-2.4 1.2-3.5 2.2-.4.3-1 .5-2.2.5-1.5 0-1.7 0-3-1.3zm-85-38.2c-2.9 0-6 2.4-6.3 5.2.6 3.2 3.3 6.4 1.6 9.8 1.2 4.3-3.3 6-6.3 3.5-1.9-4.2-2.8-8.8-5.5-12.5-3.5-1-5 4.5-7.4 6.4 1.2 3.3 4.7 6.2 5 10.2 1 4-1.5 8.3-4.9 10.3-3 2.9-7 1.9-10.6 2.5-4.4 2.5 3.3 3.5 5.3 3.6 4.5.4 9.1-.2 12.4-3.5 3.3-1.6 3-7.3 7-8 6.8-.2 13.6 1.1 20.4 1.3 3.6.9 9.3-.4 11.8 2.3 0 4.7 4 7.6 7.9 9.5 2.1.6 4.4-2 6.6-2.6 4.1-1.3 2.8-6.4 5.3-8.4 7.1-.4 14.3-.3 21.3-.4 1.4 0 1.8-1.9 2.7-2.7-.1-2.7-.2-5.4-.6-8.2-1.4-3.4.2-7.9-2.3-10.8-3.6-1-6.6 2.3-10.2 2.5-4 1.8-7.3 5.5-7.5 10-2.4 3.8-6.1-.7-4.9-4-.1-1.3.4-3 0-4.2-2.3-2.6-6-1.8-9-2.2-4.4.2-8.7-.8-13-.7-3.9-.2-7.9.4-11.6-.6-4.4-.1-3.8-4.5-4.6-7.5-.7-.6-1.7-.8-2.6-.8zm8.5 15.8c1.5 0 2.9.2 4.3.4 1.9.3 3.8-.6 5.7 0 4.2.7 8.3.5 12.6 1 1 0 1.9.7 2.6 1.4v8.8c0 1.2.4 2.6-.6 3.4a3 3 0 0 1-1.1.5c-1.2-.3-2.4-1-3-2.1-.1-1.5.1-3 .2-4.6 0-.4.2-1 0-1.3-1-.7-2-1-3.1-1-3.6-.2-7.2-.5-10.9-.6-3-.2-6.1.2-9-.6-1.2-.4-2.7-.2-3.4-1.4-1-1.2.4-2.6 1.4-3.1 1.4-.6 2.9-.8 4.3-.8zm48.4 1c.7 0 1 .3 1.2 1.5l.6 2.2c.1.5-.1.6-.8 1-2.1.7-4.3.6-5-.4-.3-.4 0-1.8.7-2.4 1.2-1 2.6-1.8 3.3-1.8z"/></g></g><path d="M680 104.3C820-3.4 808-161.2 808-161.2c-3.7.7-7.2 1-10.9 1-29.4 0-99.4-16.7-115.8-38-17.5 19.3-89 38-118.3 38-3.7 0-7.4-.3-10.9-1 0 0-12.2 157.8 127.9 265.5z" stroke-width="4.9"/><path d="M796.8-149.7a58.1 58.1 0 0 1-3.6.1c-26.6 0-88.5-13.6-112.3-34-25 18.8-87.8 34-114 34-1.2 0-2.5-.1-3.7-.3a313.7 313.7 0 0 0 11.3 80.2A304.8 304.8 0 0 0 680 89.7 305.3 305.3 0 0 0 785.5-70a313.9 313.9 0 0 0 11.3-79.8z" stroke-width="3.9"/><path d="M634.5-162.6a266 266 0 0 1-67.6 13 20 20 0 0 1-3.6-.4 312.6 312.6 0 0 0 11.3 80.2c11.8 43 32.2 81.6 59.9 114.9v-207.7zM723-163V48.3a305 305 0 0 0 62.6-118.2 313 313 0 0 0 11.2-79.8l-3.6.1c-16 0-44.7-5-70.2-13.4z" fill="#c09300" stroke="none"/><g transform="translate(-1250.5 -1299.6) scale(4.29012)" stroke-width="1.3"><path d="M462.3 253c.7.1-.9-3.5-.9-3.5 1.8 1.8 8.4 2.3 8.4 2.3-4-1.8-8-15.1-7.5-25.8.4-10.6-1.5-14.8-3-16.4-2-2-8.5-3.8-12.8-4-2.3-.1-2 1.8-2 1.8-4.4-1.1-8.8-1.6-10.8-.2-1.9 1.2-2.3 7.5-1 6.4 3.4-2.7 6.3-.2 8.3 2.7 1.8 2.5 1.7 9.7-.9 18.2-2.6 8.8-10 17.7-10 17.7 4 0 9.6-3.5 9.6-3.5l-1.3 5.5a34 34 0 0 0 7.5-5.1l4 4.2c1.3-1.8 4-4.2 4-4.2s3.3 3.5 8.4 4z" stroke-width="1.2"/><path d="M446.1 227.6s-2.2 16.4-6.4 21m10-21.5s-1 16.7-3.8 22m6.9-21.3s0 18.2 1 21.3m3-20.4s.8 15.3 4.6 20.8" fill="none"/><path d="M442 219.6a8 8 0 0 0-1-3.3c-2-3-4.9-5.4-8.2-2.7 0 0 1.1-3.5 3.6-3.6 1.8-.2 6.1 1.4 9.9 7.8 0 0-2.8-.6-3.5 0-1.2 1-.7 1.8-.7 1.8z" fill="#c09300" stroke-width=".4"/><path d="M432.4 209.3c.3-1 .7-1.8 1.3-2.1 2-1.4 6.4-1 10.9.2 0 0-.4-1.9 2-1.8 4.2.2 10.6 2 12.6 4 .5.5 1 1.3 1.5 2.4-1-1.4-3.8-1.3-4.5-1.2-1 .1-1.7 0-3.1.4-.7.2-1.7.4-2.3.8-.4.4-.8 1.7-1.4 1.7-1 0-1-.3-1.3-.6-.3-.5-.5-1.1-.9-1-1 .1-2.8-.7-5-2.5-2.3-1.8-3.2-2.2-6-2-3 .2-3.8 1.9-3.8 1.9v-.2z" fill="#c09300" stroke-width=".4"/><circle cx="448.8" cy="210.7" r="1.2" stroke="none"/></g></g></svg>