<?xml version="1.0" encoding="utf-8"?>
<!-- Svg Vector Icons : http://www.onlinewebfonts.com/icon -->
<!DOCTYPE svg PUBLIC "-//W3C//DTD SVG 1.1//EN" "http://www.w3.org/Graphics/SVG/1.1/DTD/svg11.dtd">
<svg version="1.1" xmlns="http://www.w3.org/2000/svg" xmlns:xlink="http://www.w3.org/1999/xlink" x="0px" y="0px" viewBox="0 0 256 256" enable-background="new 0 0 256 256" xml:space="preserve">
<metadata> Svg Vector Icons : http://www.onlinewebfonts.com/icon </metadata>
<g><g><path fill="#000000" d="M202.8,239.4L202.8,239.4c-3.8,0-7.3-1.5-9.8-4.3c-1.8-2-4.9-4.1-6.2-4.3c-1.2,0.1-4.4,2.3-6.1,4.2c-2.4,2.6-6,4.2-9.7,4.2c-1.8,0-3.5-0.4-5.2-1.1l-0.4-0.2l-13.4-7.5l-0.4-0.3c-4.9-3.4-6.7-9.9-4.3-15.4c0.3-0.7,0.7-1.9,0.7-2.6c0-3.9-3.2-7.1-7.1-7.1h-0.4c0,0-0.1,0-0.1,0c-5.3,0-9.7-4.1-10.9-10.2c-0.1-0.7-1.2-6.6-1.2-11.5s1.1-10.8,1.2-11.5c1.2-6.1,5.6-10.3,11-10.2h0.4c3.9,0,7.1-3.2,7.1-7.1c0-0.7-0.4-1.9-0.7-2.6c-2.4-5.5-0.6-12,4.4-15.4l0.4-0.3l14.1-7.8l0.4-0.2c1.6-0.7,3.3-1,5-1c3.7,0,7.2,1.5,9.7,4.1c1.8,1.8,4.8,3.9,6,4c1.2-0.1,4.2-2.1,6-3.9c2.4-2.5,5.9-4,9.6-4c1.8,0,3.5,0.4,5.1,1.1l0.4,0.2l13.7,7.6l0.4,0.3c4.9,3.4,6.7,9.9,4.3,15.4c-0.3,0.7-0.7,1.9-0.7,2.6c0,3.9,3.2,7.1,7.1,7.1h0.4c0,0,0.1,0,0.1,0c5.3,0,9.7,4.1,10.9,10.2c0.1,0.7,1.2,6.6,1.2,11.5c0,5-1.1,10.8-1.2,11.5c-1.2,6.1-5.5,10.2-10.9,10.2c0,0-0.1,0-0.1,0h-0.4c-3.9,0-7.1,3.2-7.1,7.1c0,0.7,0.4,2,0.7,2.6c2.4,5.5,0.6,11.9-4.3,15.4l-0.4,0.3l-13.9,7.7l-0.4,0.2C206.3,239.1,204.6,239.4,202.8,239.4z M202.7,226.3C202.7,226.3,202.8,226.3,202.7,226.3l12.1-6.6c-0.5-1.2-1.6-4.2-1.6-7.4c0-10.6,8.3-19.4,18.8-20.1c0.3-1.8,0.9-5.7,0.9-8.6c0-2.8-0.6-6.6-0.9-8.6c-10.5-0.7-18.8-9.4-18.8-20.1c0-3.2,1.1-6.3,1.6-7.4l-11.8-6.6c-0.1,0-0.2,0-0.2,0c-1.1,1.1-8,7.9-15.3,7.9c-7.4,0-14.4-7-15.4-8c0,0-0.1,0-0.2,0l-12.3,6.7c0.5,1.2,1.6,4.2,1.6,7.4c0,10.6-8.3,19.4-18.8,20.1c-0.4,2-0.9,5.8-0.9,8.6s0.6,6.6,0.9,8.6c10.5,0.7,18.8,9.4,18.8,20.1c0,3.2-1.1,6.3-1.6,7.4l11.6,6.5c0,0,0.1,0,0.1,0c1.1-1.2,8.1-8.3,15.7-8.3C194.5,217.8,201.6,225.2,202.7,226.3z"/><path fill="#000000" d="M186.9,205.4c-12.1,0-21.9-9.8-21.9-21.9c0-12.1,9.8-21.9,21.9-21.9c12.1,0,21.9,9.8,21.9,21.9C208.8,195.6,199,205.4,186.9,205.4z M186.9,174.6c-4.9,0-8.9,4-8.9,8.9s4,8.9,8.9,8.9c4.9,0,8.9-4,8.9-8.9S191.8,174.6,186.9,174.6z"/><path fill="#000000" d="M165.6,146.3"/><path fill="#000000" d="M208.6,155.9"/><path fill="#000000" d="M17.5,236.8c-4.1,0-7.5-3.3-7.5-7.5c0-46.7,29-88.2,70.5-101.1c3.9-1.2,8.1,1,9.3,4.9c1.2,3.9-1,8.1-4.9,9.3c-35.3,10.9-60,46.6-60,86.8C24.9,233.5,21.6,236.8,17.5,236.8z M130.1,128.9c-30.9,0-56.1-25.2-56.1-56.1s25.2-56.1,56.1-56.1c30.9,0,56.1,25.2,56.1,56.1C186.3,103.7,161.1,128.9,130.1,128.9z M130.1,31.6c-22.7,0-41.2,18.5-41.2,41.2s18.5,41.2,41.2,41.2s41.2-18.5,41.2-41.2C171.3,50,152.8,31.6,130.1,31.6z"/></g></g>
</svg>